<?xml version="1.0"?>
<svg xmlns="http://www.w3.org/2000/svg" xmlns:xlink="http://www.w3.org/1999/xlink" version="1.1" id="Capa_1" x="0px" y="0px" viewBox="0 0 512.001 512.001" style="enable-background:new 0 0 512.001 512.001;" xml:space="preserve" width="512px" height="512px" class=""><g><g>
	<g>
		<path d="M437.019,74.981C388.668,26.629,324.38,0.001,256,0.001S123.332,26.629,74.981,74.981C26.629,123.334,0,187.621,0,256    s26.628,132.667,74.981,181.02C123.333,485.372,187.62,512,256,512s132.667-26.628,181.02-74.981    c48.352-48.352,74.981-112.639,74.981-181.02S485.372,123.333,437.019,74.981z M256,394.519c-8.565,0-14.908-7.001-15.279-15.279    c-0.37-8.251,7.287-15.279,15.279-15.279c8.565,0,14.908,7.001,15.279,15.279C271.648,387.492,263.992,394.519,256,394.519z     M271.278,325.261c0,8.438-6.841,15.279-15.279,15.279s-15.279-6.841-15.279-15.279v-192.5c0-8.438,6.841-15.279,15.279-15.279    s15.279,6.841,15.279,15.279V325.261z" data-original="#000000" class="active-path" data-old_color="#000000" fill="#FFFFFF"/>
	</g>
</g></g> </svg>
